<svg xmlns="http://www.w3.org/2000/svg" width="90.78" height="90.156"><path data-name="Click to more * click to more * copy" d="M35.97 8.542c2.29-.572 3.72-1.908 3.87-3.636l-2.68.072a1.748 1.748 0 01-1.58 1.693 1.832 1.832 0 01-2.48-1.327 1.851 1.851 0 011.57-2.349 1.739 1.739 0 012.17.764l2.45-1.128c-.86-1.483-2.82-2.046-5.09-1.478-2.72.681-4.25 2.7-3.71 4.885.56 2.23 2.7 3.2 5.48 2.504zm5.52-1.4l7.04-.128-.04-1.96-4.48.082-.09-5.139-2.56.047zm10.64.511L53.16.627 50.62.258 49.6 7.284zm5.41 1.676c2.24.758 4.16.407 5.23-.963l-2.29-1.39a1.762 1.762 0 01-2.25.57 1.835 1.835 0 01-1.37-2.462 1.855 1.855 0 012.59-1.128 1.744 1.744 0 011.42 1.823l2.67.378c.08-1.717-1.26-3.248-3.48-4-2.66-.9-5.05-.033-5.77 2.1-.74 2.18.54 4.154 3.25 5.076zm10.32 5.04l2.44 1.607-.27-5.351h.22l3.88-.629-2.56-1.684-4.12.694 1.57-2.379-2.14-1.409-3.91 5.926 2.14 1.409.97-1.477 1.59-.282zm14.71 4.822l-5.15-6.144-1.5 1.253 1.76 2.092-3.95 3.311 1.64 1.953 3.95-3.311 1.76 2.1zm-3.33 9.134c1.31 2.638 3.45 3.665 5.54 2.634s2.58-3.36 1.28-6-3.45-3.674-5.54-2.643-2.58 3.367-1.28 6.013zm1.67-.823a1.952 1.952 0 112.68 1.034 1.924 1.924 0 01-2.68-1.03zM83 37.326l.14 2.216 3.9-.254a8.335 8.335 0 001.49-.2v.04c-.33.112-.86.307-1.4.543l-3.87 1.706.16 2.376 4.08 1.277c.49.158 1.19.343 1.44.387l.01.05a9.193 9.193 0 00-1.51-.042l-3.89.255.15 2.336 7.09-.464-.26-3.883-3.66-.984a4.826 4.826 0 00-.93-.2v-.02a4.15 4.15 0 00.87-.317l3.52-1.5-.24-3.783zm-.83 16.379c-.67 2.861.33 5.016 2.6 5.55s4.13-.949 4.8-3.809-.33-5.026-2.59-5.56-4.13.953-4.81 3.823zm1.81.426a1.953 1.953 0 111.41 2.5 1.923 1.923 0 01-1.41-2.496zm-5.72 10.147l-1.32 2.5 3.12-.3a2.236 2.236 0 001.22 2.311c1.01.536 2.39.458 3.53-1.71l2.32-4.4-6.29-3.308-1.19 2.264 2.05 1.081-.69 1.318zm6.23-.1l-.84 1.6c-.38.708-.82.77-1.2.57a.86.86 0 01-.23-1.333l.84-1.593zm-8.65 6.466l.8.71-3.11 3.515 1.19 1.048 3.11-3.515.75.67-3.22 3.643 1.29 1.14 4.92-5.561-5.32-4.709-4.97 5.614 1.29 1.141zm-9.3 12.059l1.24 1.05.63-1.466.32 1.435 1.53-.965-1.17-.9 1.6.067-.41-1.578-1.33.792.64-1.523-1.71-.061.3 1.62-1.32-.975-.69 1.57 1.65.084zm-11.09-1.226c-2.27.649-3.66 2.032-3.75 3.765l2.68-.163a1.734 1.734 0 011.51-1.744 1.834 1.834 0 012.53 1.241 1.855 1.855 0 01-1.48 2.4 1.756 1.756 0 01-2.21-.69l-2.41 1.209c.92 1.454 2.89 1.95 5.14 1.307 2.7-.773 4.16-2.845 3.55-5.007-.64-2.202-2.81-3.099-5.56-2.31zm-5.49 1.477l-7.04.252.07 1.96 4.48-.16.18 5.139 2.56-.091zm-10.67-.337l-.9 7.04 2.53.327.91-7.04zm-5.44-1.6c-2.24-.725-4.16-.348-5.21 1.037l2.32 1.358a1.744 1.744 0 012.23-.6 1.9 1.9 0 11-1.16 3.605 1.749 1.749 0 01-1.45-1.8l-2.67-.339c-.06 1.717 1.31 3.228 3.53 3.948 2.67.864 5.05-.04 5.74-2.18.71-2.184-.6-4.136-3.33-5.019zm-10.38-4.858l-2.46-1.568.36 5.347h-.22l-3.87.692 2.58 1.643 4.12-.761-1.53 2.4 2.16 1.375 3.81-5.99-2.16-1.375-.95 1.493-1.59.309zm-14.8-4.608l5.25 6.068 1.47-1.276-1.78-2.066 3.89-3.371-1.67-1.929-3.89 3.371-1.8-2.074zm3.19-9.155c-1.35-2.612-3.51-3.6-5.58-2.534s-2.52 3.4-1.17 6.012 3.51 3.61 5.58 2.543 2.52-3.39 1.17-6.011zm-1.65.851a1.952 1.952 0 11-2.69-.986 1.921 1.921 0 012.69 1.001zm-2.25-9.824l-.18-2.214-3.89.315a8.331 8.331 0 00-1.49.221v-.04c.33-.117.85-.32 1.39-.564l3.84-1.767L7.44 47l-4.11-1.213c-.49-.151-1.19-.325-1.44-.365l-.01-.05a9.161 9.161 0 001.51.019l3.89-.315-.19-2.334-7.08.574.31 3.879 3.68.927a4.757 4.757 0 00.93.186v.019a4.45 4.45 0 00-.86.332l-3.5 1.558.31 3.779zm.56-16.352c.63-2.871-.41-5.012-2.68-5.51s-4.11 1.014-4.74 3.885.4 5.022 2.68 5.52 4.11-1.004 4.74-3.885zm-1.82-.4a1.951 1.951 0 11-1.44-2.475 1.908 1.908 0 011.44 2.487zm5.58-10.27l1.27-2.516-3.11.348a2.232 2.232 0 00-1.25-2.294c-1.03-.521-2.4-.422-3.51 1.764l-2.25 4.434 6.33 3.216 1.16-2.285-2.07-1.05.68-1.33zm-6.24.19l.82-1.614c.36-.714.8-.783 1.19-.589s.62.6.25 1.331l-.81 1.606zm8.55-6.59l-.81-.7 3.05-3.559-1.2-1.029-3.05 3.559-.77-.657 3.17-3.689-1.31-1.12-4.83 5.632 5.39 4.623 4.88-5.684-1.31-1.121zm9.1-12.2l-1.26-1.03-.61 1.475-.34-1.429-1.51.99 1.18.885-1.6-.04.43 1.571 1.32-.814-.61 1.534 1.7.033-.32-1.615 1.34.954.66-1.581-1.65-.057z" fill="#fff" fill-rule="evenodd"/></svg>