<svg width="166" height="23" fill="none" xmlns="http://www.w3.org/2000/svg"><path d="M.368 8.337H3.22V17h2.622V8.337h2.852V6.236H.368v2.1zM19.91 17h2.776L18.79 6.236h-3.036L11.86 17h2.745l.644-1.901h4.017L19.91 17zm-1.319-3.925H15.94l1.319-3.941 1.334 3.94zm10.718.368V17h2.622v-3.557l3.726-7.207h-2.944l-2.07 4.508-2.085-4.508h-2.975l3.726 7.207zm9.96-7.207V17h6.057v-2.024H41.89v-8.74h-2.622zm20.458 5.351c0-3.235-2.438-5.504-5.505-5.504-3.05 0-5.535 2.269-5.535 5.504 0 3.236 2.484 5.52 5.535 5.52 3.052 0 5.505-2.284 5.505-5.52zm-8.356 0c0-1.916 1.103-3.128 2.851-3.128 1.718 0 2.837 1.212 2.837 3.128 0 1.886-1.12 3.128-2.837 3.128-1.748 0-2.852-1.242-2.852-3.128zm18.06-1.855c0 .843-.46 1.35-1.442 1.35h-1.626V8.412h1.626c.981 0 1.441.522 1.441 1.319zm-5.69-3.496V17h2.623v-4.063h.628L69.231 17h2.96l-2.485-4.263c1.656-.49 2.392-1.763 2.392-3.112 0-1.871-1.319-3.389-3.956-3.389h-4.4zm20.986 4.815V8.352h1.425c1.043 0 1.488.521 1.488 1.35 0 .827-.445 1.349-1.487 1.349h-1.427zm5.58-1.35c0-1.978-1.318-3.465-3.955-3.465h-4.248V17h2.623v-3.864h1.625c2.745 0 3.956-1.656 3.956-3.435zm9.61.031c0 .843-.46 1.35-1.441 1.35H96.85V8.412h1.626c.981 0 1.441.522 1.441 1.319zm-5.689-3.496V17h2.622v-4.063h.63L99.717 17h2.959l-2.484-4.263c1.656-.49 2.392-1.763 2.392-3.112 0-1.871-1.319-3.389-3.956-3.389h-4.4zM106.787 17h2.622V6.236h-2.622V17zm7.077 0h2.622v-6.47l2.423 6.47h2.116l2.407-6.455V17h2.622V6.236h-3.082l-2.99 7.452-3.02-7.452h-3.098V17zm16.585-4.34c0 2.975 1.948 4.447 4.447 4.447 2.484 0 4.569-1.472 4.569-4.446V6.236h-2.622v6.44c0 1.273-.659 2.009-1.901 2.009s-1.871-.736-1.871-2.009v-6.44h-2.622v6.425zm12.83-4.323h2.852V17h2.622V8.337h2.852V6.236h-8.326v2.1zM162.178 17h2.622V6.236h-2.622v4.217h-4.079V6.236h-2.622V17h2.622v-4.431h4.079V17z" fill="#fff"/></svg>