<svg xmlns="http://www.w3.org/2000/svg" width="90.56" height="90.591"><path data-name="* Next * next * next * next copy" d="M35.26 3.348l-.91-1.349-1.01 1.234.09-1.464-1.74.508.88 1.19-1.52-.5-.04 1.627 1.49-.4-1.02 1.291 1.62.525.15-1.639 1.01 1.3 1.09-1.319-1.56-.533zm9.16 3.72l2.31.209.28-3.106.1-1.085h.05a4.543 4.543 0 00.52.951l2.73 3.57 2.49.226.64-7.07-2.3-.208-.28 3.077-.1 1.1h-.05a5 5 0 00-.51-.93L47.7.244 45.06.005zM58.93 8l.39-.994 4.36 1.738.58-1.467-4.35-1.738.37-.938 4.52 1.8.63-1.6-6.89-2.748-2.63 6.593 6.96 2.774.64-1.6zm5.92 4.377l2.39 1.876 2.13-.477a5.068 5.068 0 00.79-.18l.01.012a3.64 3.64 0 00.01.8l.05 2.186 2.39 1.876-.36-4.862 4.67-.769-2.36-1.857-2.23.489a4 4 0 00-.6.15l-.03-.024a2.488 2.488 0 000-.62l-.04-2.272-2.37-1.858.35 4.712zm19.4 9.911l-4.67-6.514L78 16.91l1.59 2.217-4.18 3 1.48 2.071 4.18-3 1.6 2.225zm2.84 12.517l1.34-.922-1.24-1 1.46.074-.53-1.731-1.18.895.49-1.529-1.63-.024.41 1.494-1.3-1.014-.51 1.63 1.65.135-1.29 1.022 1.33 1.077.51-1.569zm-3.61 9.2l-.18 2.313 3.11.241 1.09.085v.049a4.844 4.844 0 00-.95.539l-3.53 2.775-.2 2.493 7.08.548.18-2.3-3.08-.239-1.1-.085.01-.049a5.162 5.162 0 00.92-.531l3.52-2.645.21-2.642zm-.75 14.528l1 .383-1.68 4.376 1.47.566 1.68-4.376.94.361-1.74 4.536 1.61.616 2.66-6.925-6.63-2.542-2.68 6.989 1.6.616zm-4.31 5.973l-1.85 2.416.51 2.122a4.306 4.306 0 00.19.788l-.01.015a3.9 3.9 0 00-.81.015l-2.18.079-1.85 2.415 4.86-.415.83 4.661 1.83-2.391-.52-2.221a3.433 3.433 0 00-.16-.6l.02-.032a2.589 2.589 0 00.62 0l2.28-.076L84 68.89l-4.7.417zm-9.66 19.527l6.45-4.762-1.16-1.569-2.19 1.62-3.06-4.144-2.05 1.512 3.05 4.144-2.2 1.629zm-12.47 2.98l.94 1.33.98-1.26-.06 1.47 1.73-.55-.91-1.17 1.54.46v-1.63l-1.49.44 1-1.32-1.64-.49-.11 1.65-1.04-1.28-1.06 1.35 1.57.49zm-9.26-3.5l-2.32-.15-.21 3.12-.07 1.09-.05-.01a4.711 4.711 0 00-.55-.94l-2.82-3.5-2.49-.17-.47 7.09 2.31.16.2-3.09.07-1.1h.05a5.507 5.507 0 00.54.92l2.69 3.5 2.65.17zm-14.52-.57l-.37 1.01-4.4-1.63-.55 1.48 4.4 1.63-.35.95-4.56-1.69-.6 1.61 6.96 2.58 2.47-6.66-7.03-2.6-.6 1.613zm-6.03-4.227L24.05 76.9l-2.12.53a4.572 4.572 0 00-.78.2l-.02-.012a4.6 4.6 0 00-.02-.8L21 74.634l-2.44-1.816.48 4.852-4.65.886 2.41 1.8 2.21-.544a3.665 3.665 0 00.6-.166l.03.024a2.259 2.259 0 00.02.62l.1 2.269 2.41 1.8-.47-4.7zM6.85 69.298l4.83 6.4 1.56-1.174-1.65-2.177 4.11-3.1-1.54-2.034-4.1 3.1-1.66-2.185zM3.69 56.847l-1.32.954 1.28.968-1.47-.038.57 1.717 1.16-.923-.45 1.539 1.63-.015-.45-1.483 1.33.981.46-1.641-1.64-.1 1.26-1.052-1.36-1.044-.48 1.58zm3.38-9.3l.13-2.316-3.12-.166-1.09-.058v-.05a4.817 4.817 0 00.94-.561l3.46-2.859.14-2.5-7.09-.377-.13 2.306 3.09.164 1.1.059-.01.05a5.673 5.673 0 00-.91.552L.12 44.52l-.14 2.646zm.4-14.53l-1.01-.359 1.57-4.415-1.49-.529-1.57 4.414-.95-.338 1.63-4.575-1.62-.577-2.49 6.985 6.69 2.381 2.51-7.051-1.62-.577zm4.16-6.08l1.78-2.457-.55-2.108a6.131 6.131 0 00-.21-.783l.01-.016a3.746 3.746 0 00.8-.034l2.18-.13 1.79-2.458-4.85.531-.94-4.637-1.76 2.436.57 2.206a3.214 3.214 0 00.17.595l-.02.032a2.626 2.626 0 00-.62.019l-2.27.13-1.77 2.433 4.69-.528zm9.16-19.746l-6.33 4.915 1.19 1.541 2.16-1.674 3.15 4.068 2.02-1.562-3.16-4.069 2.17-1.679z" fill="#fff" fill-rule="evenodd"/></svg>