<svg xmlns="http://www.w3.org/2000/svg" width="90.5" height="90.5"><path data-name="* Prev * prev * prev * prev copy" d="M35.67 3.203l-.9-1.355-1.02 1.228.1-1.464-1.74.5.88 1.195-1.52-.511-.06 1.627 1.5-.388-1.03 1.284 1.62.535.16-1.638 1 1.3 1.1-1.312-1.56-.542zM50.42.444L45.45.011l-.61 7.075 2.55.222.18-2.062 2.46.214c1.88.164 3.18-.737 3.31-2.321.14-1.525-.95-2.523-2.92-2.695zm-.96 3.33l-1.75-.152.15-1.764 1.77.154a.9.9 0 011.02.972.92.92 0 01-1.19.79zm10.99 6.65l2.63 1.019-.66-3.064a2.225 2.225 0 002.16-1.47c.41-1.073.18-2.43-2.11-3.315l-4.63-1.8-2.57 6.621 2.39.925.84-2.163 1.39.538zm-.81-6.182l1.69.655c.74.289.85.719.7 1.12-.16.419-.53.683-1.3.387l-1.68-.651zm8.66 8.69l.64-.854 3.75 2.821.95-1.261-3.75-2.82.61-.806 3.88 2.923 1.03-1.373L69.49 7.1l-4.27 5.664 5.98 4.5 1.03-1.373zm6.5 8.419l1.85 2.486 7.73-1.513-1.7-2.278-4.61 1.118a3.564 3.564 0 00-.75.27l-.03-.032a3.527 3.527 0 00.48-.639l2.39-4.1-1.7-2.278zm12.33 13.69l1.34-.914-1.24-1.007 1.47.084-.52-1.734-1.19.887.5-1.525-1.63-.035.41 1.5-1.3-1.021-.52 1.626 1.64.146-1.29 1.013 1.33 1.085.52-1.565zm3.01 14.638l.35-4.97-7.09-.49-.17 2.555 2.06.143-.17 2.464c-.13 1.886.79 3.164 2.38 3.274 1.53.105 2.51-1 2.64-2.976zm-3.34-.894l.12-1.756 1.76.122-.12 1.767a.894.894 0 01-.95 1.037.915.915 0 01-.81-1.17zm-6.46 11.113l-.97 2.648 3.06-.714a2.212 2.212 0 001.51 2.129c1.07.4 2.43.135 3.27-2.165l1.71-4.666-6.67-2.442-.88 2.4 2.18.8-.51 1.4zm6.17-.925l-.62 1.7c-.28.751-.71.871-1.11.724-.42-.155-.69-.521-.41-1.291l.62-1.69zm-8.55 8.82l.87.628-2.76 3.791 1.28.928 2.76-3.79.81.593-2.85 3.928 1.39 1.011 4.36-6-5.74-4.171-4.4 6.054 1.39 1.01zm-8.3 6.638l-2.45 1.9 1.65 7.7 2.25-1.74-1.2-4.6a4.053 4.053 0 00-.28-.742l.03-.025a3.633 3.633 0 00.64.461l4.15 2.322 2.25-1.737zM56.19 87l.94 1.33.98-1.26-.05 1.47 1.72-.55-.91-1.17 1.54.47.01-1.63-1.49.43 1-1.32-1.64-.49-.12 1.65-1.03-1.28L56.07 86l1.58.49zm-14.57 3.26l4.97.26.37-7.09-2.56-.13-.11 2.06-2.46-.12c-1.89-.1-3.15.84-3.23 2.43-.08 1.53 1.04 2.49 3.02 2.59zm.83-3.36l1.76.09-.09 1.77-1.77-.1a.887.887 0 01-1.05-.93.909.909 0 011.15-.83zm-11.23-6.259l-2.67-.926.77 3.035a2.231 2.231 0 00-2.11 1.55c-.37 1.08-.09 2.43 2.22 3.24l4.69 1.63 2.34-6.71-2.42-.837-.76 2.187-1.41-.49zm1.02 6.149l-1.71-.6c-.75-.26-.88-.68-.74-1.09.15-.43.51-.7 1.28-.43l1.7.59zm-8.97-8.39l-.61.876-3.84-2.69-.91 1.294 3.84 2.69-.57.827-3.98-2.788-.99 1.408 6.07 4.253 4.08-5.81-6.14-4.3-.98 1.408zm-6.76-8.177l-1.94-2.419-7.67 1.781 1.78 2.216 4.57-1.278a3.805 3.805 0 00.74-.3l.02.032a4.184 4.184 0 00-.45.654l-2.25 4.181 1.78 2.216zM3.71 56.974l-1.31.958 1.27.964-1.47-.034.58 1.716 1.15-.927-.44 1.541 1.63-.02-.46-1.482 1.33.977.46-1.642-1.64-.091 1.26-1.056-1.36-1.04-.47 1.582zM.18 42.421l-.17 4.98 7.1.251.09-2.56-2.07-.073.09-2.47c.06-1.89-.9-3.135-2.49-3.191C1.2 39.303.25 40.442.18 42.421zm3.38.781l-.06 1.76-1.77-.063.06-1.77a.9.9 0 01.92-1.069.914.914 0 01.85 1.142zm6.07-11.318l.88-2.678-3.03.814a2.226 2.226 0 00-1.58-2.078c-1.09-.359-2.43-.054-3.2 2.272l-1.55 4.719 6.74 2.22.8-2.43-2.2-.726.46-1.415zM3.5 33.012l.56-1.718c.25-.76.68-.894 1.09-.76a.856.856 0 01.45 1.276l-.56 1.709zm8.23-9.108l-.88-.6 2.62-3.882-1.31-.885-2.62 3.882-.84-.565 2.72-4.024-1.42-.963-4.16 6.142 5.88 3.977 4.2-6.2-1.43-.963zm8.07-6.925l2.39-1.977-1.9-7.639-2.19 1.811 1.35 4.554a3.92 3.92 0 00.31.732l-.03.026a3.673 3.673 0 00-.66-.439l-4.23-2.182-2.18 1.811z" fill="#fff" fill-rule="evenodd"/></svg>