<svg xmlns="http://www.w3.org/2000/svg" width="90.68" height="90.719"><path data-name="sCROLL DOWN * SCROLL DOWN * D" d="M35.83 8.844c2.59-.647 3.91-1.937 3.51-3.537-.33-1.319-1.27-1.692-3.3-1.4l-1.82.269c-.71.1-.94.039-1.01-.233-.08-.32.32-.593 1.14-.8a4.532 4.532 0 012.98.163l1-1.8a7.208 7.208 0 00-4.26-.058c-2.44.611-3.63 1.8-3.28 3.21.34 1.338 1.35 1.765 3.15 1.542l2.12-.272c.6-.077.8-.024.86.238.09.368-.34.684-1.37.941a4.674 4.674 0 01-3.22-.391l-1.25 1.8a6.947 6.947 0 004.75.328zm9.64-1.232c2.36 0 4.07-.942 4.65-2.582l-2.62-.586a1.765 1.765 0 01-1.95 1.257 1.828 1.828 0 01-2.08-1.895 1.848 1.848 0 012.09-1.9 1.754 1.754 0 011.93 1.275l2.65-.5C49.66 1.029 47.91.005 45.56 0c-2.81-.006-4.79 1.581-4.8 3.832 0 2.312 1.84 3.772 4.71 3.778zm11.4 1.513l2.72.742-.97-2.979a2.218 2.218 0 001.99-1.685c.3-1.11-.07-2.434-2.43-3.078L53.38.818l-1.86 6.849 2.47.673.61-2.238 1.43.391zm-1.45-6.061l1.75.475c.77.211.93.626.81 1.041-.11.434-.45.735-1.25.519L55 4.626zm8.94 9.7c2.54 1.479 4.89 1.152 6.07-.859s.3-4.221-2.24-5.7-4.9-1.157-6.07.854-.3 4.217 2.24 5.702zm.94-1.606a1.95 1.95 0 112.8-.612 1.908 1.908 0 01-2.8.609zm4.34 4.816l5.04 4.924 1.37-1.4-3.2-3.133 3.59-3.675-1.83-1.791zm5.9 6.088l3.81 5.919L81 26.92l-2.42-3.766 4.32-2.782-1.39-2.152zm5.68 10.108l1.14 4.569c.62 2.513 2.49 3.83 4.6 3.307s2.94-2.379 2.3-4.96l-1.15-4.627zm2.23 2.083l3.68-.913.43 1.736a1.775 1.775 0 01-1.3 2.362 1.851 1.851 0 01-2.39-1.507zm-.38 12.635c-.12 2.939 1.28 4.868 3.61 4.961s3.87-1.716 3.99-4.655-1.28-4.878-3.61-4.971-3.87 1.713-3.99 4.662zm1.86.075a1.953 1.953 0 111.86 2.187 1.919 1.919 0 01-1.86-2.19zm-2.4 7.442l-1 2.692 3.27 2.684a3.364 3.364 0 00.58.374l-.02.047a2.329 2.329 0 00-.68-.092l-4.23-.1-.99 2.692 5.82 4.737.89-2.411-3.35-2.456a3.075 3.075 0 00-.66-.395l.02-.047a2.912 2.912 0 00.78.067l4.22.091.94-2.533-3.26-2.681a3.106 3.106 0 00-.64-.461l.01-.046a3.132 3.132 0 00.77.132l4.14.316.89-2.411zm-4.98 11.583l-1.46 1.8 2.42 1.963.85.686-.03.039a4.938 4.938 0 00-1.08-.093l-4.49.279-1.57 1.942 5.51 4.467 1.46-1.794-2.4-1.944-.86-.692.03-.039a5.114 5.114 0 001.06.087l4.41-.177 1.66-2.059zM66.81 82.799l1.26 1.038.62-1.471.32 1.43 1.53-.979-1.18-.893 1.6.051-.42-1.574-1.33.805.62-1.529-1.7-.044.32 1.616-1.34-.961-.67 1.576 1.65.068zm-11.27-1.074c-2.57.734-3.85 2.067-3.4 3.653.38 1.307 1.33 1.649 3.35 1.287l1.81-.33c.71-.119.94-.071 1.01.2.1.317-.29.6-1.11.837a4.514 4.514 0 01-2.98-.062l-.94 1.829a7.2 7.2 0 004.26-.085c2.42-.692 3.56-1.924 3.17-3.318-.38-1.326-1.41-1.719-3.2-1.435l-2.11.342c-.59.1-.79.051-.87-.208-.1-.365.32-.695 1.34-.986a4.662 4.662 0 013.23.282l1.19-1.838a6.927 6.927 0 00-4.75-.171zm-9.62 1.407c-2.36.039-4.05 1.018-4.6 2.668l2.63.536a1.755 1.755 0 011.92-1.293 1.905 1.905 0 11.07 3.791 1.745 1.745 0 01-1.95-1.238l-2.65.545c.51 1.642 2.29 2.633 4.63 2.593 2.81-.047 4.76-1.671 4.72-3.921-.03-2.303-1.9-3.733-4.77-3.684zM34.5 81.838l-2.74-.688 1.03 2.962a2.227 2.227 0 00-1.96 1.726c-.28 1.116.12 2.434 2.5 3.032l4.82 1.212 1.73-6.891-2.48-.624-.57 2.252-1.44-.364zm1.56 6.038l-1.75-.442c-.78-.195-.94-.608-.84-1.025a.856.856 0 011.24-.545l1.75.439zm-9.15-9.556c-2.57-1.435-4.92-1.064-6.06.971s-.22 4.231 2.35 5.665 4.93 1.069 6.06-.966.23-4.234-2.35-5.673zM26 79.944a1.953 1.953 0 11-2.79.665 1.918 1.918 0 012.79-.665zm-4.4-4.719l-5.12-4.833-1.34 1.426 3.26 3.076-3.53 3.738 1.86 1.758zm-6.02-5.987l-3.92-5.844-1.63 1.092 2.5 3.719-4.27 2.865 1.43 2.125zm-5.93-9.98l-1.14-4.567c-.63-2.512-2.5-3.826-4.6-3.3-2.13.531-2.94 2.384-2.3 4.963l1.16 4.626zm-2.23-2.08l-3.67.919-.44-1.736a1.777 1.777 0 011.3-2.363 1.848 1.848 0 012.39 1.5zm.17-12.617c.07-2.938-1.36-4.838-3.69-4.888S.06 41.461 0 44.399s1.37 4.848 3.69 4.9 3.84-1.793 3.9-4.741zm-1.85-.04a1.952 1.952 0 11-1.9-2.15 1.92 1.92 0 011.9 2.147zM8 37.043l.94-2.711-3.32-2.622a3.276 3.276 0 00-.58-.363l.01-.047a2.362 2.362 0 00.69.079l4.23.025.94-2.711-5.9-4.627-.85 2.427 3.39 2.393a3.031 3.031 0 00.67.383l-.01.047a3.047 3.047 0 00-.79-.052l-4.23-.012-.89 2.55 3.32 2.619a2.773 2.773 0 00.65.449l-.02.048a3.031 3.031 0 00-.76-.119l-4.15-.239-.85 2.428zm4.76-11.675l1.42-1.83-2.46-1.918-.86-.671.03-.039a4.957 4.957 0 001.09.072l4.48-.362L18 18.648l-5.6-4.366-1.42 1.822 2.43 1.9.87.677-.03.039a5.087 5.087 0 00-1.06-.068l-4.4.26-1.63 2.09zm10.4-17l-1.27-1.013-.6 1.482-.35-1.424-1.5 1.009 1.2.869-1.61-.019.45 1.565 1.31-.831-.59 1.541 1.71.011-.35-1.61 1.35.936.64-1.588-1.65-.036z" fill="#fff" fill-rule="evenodd"/></svg>