<svg xmlns="http://www.w3.org/2000/svg" width="90.47" height="90.437"><path data-name="PLEASE WAIT * Please wait * copy 2" d="M37.51.768l-4.88 1 1.43 6.953 2.5-.514-.41-2.027 2.42-.5c1.85-.379 2.83-1.611 2.51-3.168-.31-1.495-1.63-2.141-3.57-1.744zm.04 3.462l-1.73.354-.35-1.733 1.73-.356a.893.893 0 011.25.641.91.91 0 01-.9 1.094zm6.59 2.852l7.04.385.1-1.958-4.47-.245.28-5.133-2.56-.14zm12.21-.034l.32-1.019 4.47 1.433.48-1.5-4.46-1.433.31-.962 4.62 1.485.53-1.638-7.07-2.267-2.17 6.761 7.14 2.289.52-1.638zm11.88 7.794l2.28 1.519 1.19-7.73-2.76-1.841-6.68 4.07 2.29 1.525 1.2-.817 2.77 1.847zm-1.11-4.21l1.1-.745a7.56 7.56 0 001.29-.977l.03.016a6.555 6.555 0 00-.41 1.566l-.27 1.3zm6.99 10.195c1.73 2.039 3.47 2.661 4.73 1.6 1.04-.878.96-1.885-.2-3.586l-1.04-1.514c-.4-.594-.45-.825-.24-1.006.25-.213.67.021 1.22.67a4.479 4.479 0 011.17 2.745l2.05.109a7.2 7.2 0 00-1.82-3.851c-1.63-1.924-3.22-2.463-4.33-1.527-1.05.891-.99 1.989 0 3.506l1.18 1.78c.33.5.37.706.17.88-.29.245-.77-.007-1.45-.817a4.631 4.631 0 01-1.07-3.063l-2.17-.331a7.058 7.058 0 001.8 4.405zm6.71 6.594l.97-.452 1.98 4.247 1.43-.668-1.98-4.247.92-.427 2.05 4.4 1.56-.727-3.14-6.72-6.43 3 3.17 6.783 1.56-.727zm2.52 13.783l-.03 2.868 3.98 1.421a3.29 3.29 0 00.67.156v.05a2.345 2.345 0 00-.67.144l-4.01 1.328-.03 2.869 7.07 2.491.02-2.569-3.97-1.18a3 3 0 00-.76-.148v-.047a2.909 2.909 0 00.76-.2l4-1.338.03-2.7-3.97-1.42a2.988 2.988 0 00-.76-.218v-.05a2.96 2.96 0 00.76-.132l4-1.1.03-2.569zm-2.79 18.339l-.89 2.592 7.78-.828 1.08-3.14-5.65-5.416-.89 2.6 1.1.957-1.08 3.15zm3.78-2.15l1.01.87a7.886 7.886 0 001.27 1l-.01.028a6.709 6.709 0 00-1.62.007l-1.32.076zm-7.22 8.625l6.07 3.679 1.32-2.187-6.06-3.68zm-1.18 12.537l5.39-5.93-1.44-1.311-1.84 2.019-3.81-3.463-1.71 1.886 3.81 3.462-1.85 2.026zm-10.9 5.023l1.2 1.1.69-1.441.26 1.445 1.57-.909-1.14-.947 1.6.125-.35-1.592-1.36.743.69-1.5-1.7-.123.24 1.63-1.29-1.023-.75 1.544 1.65.144zm-12.69 6.193l4.9-.917-1.31-6.974-2.52.472.38 2.033-2.42.455c-1.86.348-2.86 1.563-2.57 3.124.28 1.503 1.6 2.172 3.54 1.807zm.03-3.461l1.72-.324.33 1.738-1.74.326a.9.9 0 01-1.24-.661.915.915 0 01.93-1.079zm-6.53-2.952l-7.02-.5-.14 1.954 4.47.318-.37 5.123 2.56.182zm-12.22-.152l-.34 1.014-4.45-1.5-.5 1.5 4.44 1.5-.32.957-4.61-1.552-.55 1.631 7.04 2.37 2.26-6.732-7.1-2.392-.55 1.631zM21.85 75.22l-2.25-1.555-1.32 7.72 2.74 1.884 6.75-3.973-2.27-1.561-1.22.8-2.74-1.891zm1.05 4.231l-1.11.729a8.114 8.114 0 00-1.31.959l-.02-.017a6.866 6.866 0 00.43-1.561l.29-1.3zm-6.83-10.317c-1.69-2.069-3.42-2.721-4.7-1.677-1.06.86-.99 1.869.14 3.591l1.02 1.532c.39.6.43.834.22 1.011-.26.208-.68-.033-1.21-.692a4.522 4.522 0 01-1.12-2.766l-2.06-.144a7.232 7.232 0 001.76 3.884c1.6 1.953 3.18 2.519 4.31 1.6 1.07-.873 1.02-1.972.05-3.507l-1.15-1.8c-.32-.51-.36-.712-.15-.883.3-.241.77.02 1.44.842a4.691 4.691 0 011.02 3.083l2.16.368a6.935 6.935 0 00-1.73-4.442zm-6.6-6.687l-.97.438-1.92-4.28-1.44.646 1.91 4.28-.92.413-1.99-4.435-1.56.7 3.03 6.771 6.48-2.9-3.06-6.834-1.57.7zm-2.3-13.839l.07-2.867-3.96-1.483a3.089 3.089 0 00-.66-.167v-.05a2.311 2.311 0 00.67-.133l4.04-1.264.07-2.867-7.03-2.6-.07 2.567 3.96 1.243a3.037 3.037 0 00.76.16l-.01.05a2.882 2.882 0 00-.76.19L.23 42.661l-.07 2.7 3.95 1.483a2.83 2.83 0 00.75.229v.05a2.974 2.974 0 00-.76.12L.08 48.278l-.07 2.568zm3.07-18.285l.93-2.58-7.8.715-1.12 3.127 5.58 5.5.92-2.59-1.08-.973 1.12-3.136zm-3.81 2.1l-.99-.885a7.618 7.618 0 00-1.27-1.014l.01-.029a6.66 6.66 0 001.62.017l1.33-.057zm7.36-8.51l-6.01-3.772-1.36 2.168 6.01 3.773zm1.39-12.521l-5.49 5.842 1.42 1.335 1.87-1.988 3.75 3.526 1.75-1.858-3.75-3.526 1.87-2zM26.14 6.56l-1.19-1.113-.71 1.429L24 5.428l-1.58.884 1.13.963-1.6-.149.32 1.6 1.37-.722-.71 1.488 1.7.149-.22-1.632 1.27 1.042.77-1.531-1.64-.17z" fill="#fff" fill-rule="evenodd"/></svg>